<?xml version="1.0" encoding="utf-8"?>
<!-- Generator: Adobe Illustrator 21.1.0, SVG Export Plug-In . SVG Version: 6.00 Build 0)  -->
<svg version="1.1" id="Capa_1" xmlns="http://www.w3.org/2000/svg" xmlns:xlink="http://www.w3.org/1999/xlink" x="0px" y="0px"
	 viewBox="277.6 400.9 40 40" style="enable-background:new 277.6 400.9 40 40;" xml:space="preserve">
<style type="text/css">
	.st0{fill:#183369;}
</style>
<g>
	<g>
		<path class="st0" d="M314.3,428.5c-0.1-0.2-0.7-1.4-3.4-3.9c-2.8-2.6-2.5-2.2,1-6.8c2.1-2.8,2.9-4.5,2.7-5.2
			c-0.2-0.7-1.8-0.5-1.8-0.5l-5.1,0c0,0-0.4-0.1-0.7,0.1c-0.3,0.2-0.5,0.5-0.5,0.5s-0.8,2.2-1.9,4c-2.3,3.9-3.2,4.1-3.6,3.8
			c-0.9-0.6-0.6-2.2-0.6-3.4c0-3.7,0.6-5.3-1.1-5.7c-0.6-0.1-1-0.2-2.4-0.2c-1.8,0-3.4,0-4.2,0.4c-0.6,0.3-1,0.9-0.8,1
			c0.3,0,1.1,0.2,1.5,0.8c0.5,0.7,0.5,2.3,0.5,2.3s0.3,4.4-0.7,5c-0.7,0.4-1.6-0.4-3.7-3.9c-1-1.8-1.8-3.8-1.8-3.8s-0.2-0.4-0.4-0.6
			c-0.3-0.2-0.8-0.3-0.8-0.3l-4.9,0c0,0-0.7,0-1,0.3c-0.2,0.3,0,0.9,0,0.9s3.8,8.9,8.1,13.4c4,4.1,8.4,3.8,8.4,3.8h2
			c0,0,0.6-0.1,0.9-0.4c0.3-0.3,0.3-0.9,0.3-0.9s0-2.7,1.2-3.1c1.2-0.4,2.8,2.6,4.5,3.8c1.3,0.9,2.3,0.7,2.3,0.7l4.5-0.1
			C313.1,430.6,315.5,430.4,314.3,428.5z"/>
	</g>
</g>
</svg>
