<?xml version="1.0" encoding="utf-8"?>
<!-- Generator: Adobe Illustrator 21.1.0, SVG Export Plug-In . SVG Version: 6.00 Build 0)  -->
<svg version="1.1" id="Capa_1" xmlns="http://www.w3.org/2000/svg" xmlns:xlink="http://www.w3.org/1999/xlink" x="0px" y="0px"
	 viewBox="277.6 400.9 40 40" style="enable-background:new 277.6 400.9 40 40;" xml:space="preserve">
<style type="text/css">
	.st0{fill:#183369;}
</style>
<g>
	<path class="st0" d="M295.5,429.9L295.5,429.9c-0.3,0.4-0.6,0.6-0.9,0.6c-0.2,0-0.3-0.1-0.3-0.3c0,0,0-0.2,0-0.5v-5.6H293v6
		c0,0.5,0,0.9,0.1,1.1c0.1,0.4,0.4,0.6,0.9,0.6c0.5,0,1-0.3,1.6-0.9v0.8h1.4v-7.6h-1.4V429.9z"/>
	<polygon class="st0" points="288,422.9 289.6,422.9 289.6,431.7 291.1,431.7 291.1,422.9 292.8,422.9 292.8,421.5 288,421.5 	"/>
	<path class="st0" d="M300.9,424c-0.5,0-1,0.3-1.4,0.8v-3.3h-1.4v10.2h1.4v-0.7c0.5,0.6,0.9,0.8,1.4,0.8c0.6,0,0.9-0.3,1.1-0.9
		c0.1-0.3,0.1-0.8,0.1-1.5v-3c0-0.7,0-1.2-0.1-1.5C301.8,424.3,301.4,424,300.9,424z M300.8,429.5c0,0.7-0.2,1-0.6,1
		c-0.2,0-0.5-0.1-0.7-0.3v-4.6c0.2-0.2,0.4-0.3,0.7-0.3c0.4,0,0.6,0.3,0.6,1V429.5z"/>
	<path class="st0" d="M297.3,416.3c0.4,0,0.7-0.4,0.7-1.1v-3.2c0-0.7-0.2-1.1-0.7-1.1c-0.4,0-0.7,0.4-0.7,1.1v3.2
		C296.7,416,296.9,416.3,297.3,416.3z"/>
	<path class="st0" d="M305.2,424c-0.7,0-1.2,0.3-1.6,0.8c-0.3,0.4-0.4,1-0.4,1.8v2.7c0,0.8,0.1,1.4,0.4,1.8c0.4,0.5,1,0.8,1.7,0.8
		c0.7,0,1.3-0.3,1.6-0.8c0.2-0.2,0.3-0.5,0.3-0.8c0-0.2,0-0.5,0-0.9V429h-1.4c0,0.2,0,0.3,0,0.4s0,0.3,0,0.3c0,0.1,0,0.1,0,0.1
		c-0.1,0.4-0.3,0.5-0.6,0.5c-0.5,0-0.7-0.4-0.7-1v-1.3h2.7v-1.6c0-0.8-0.1-1.4-0.4-1.8C306.5,424.3,305.9,424,305.2,424z M305.9,427
		h-1.4v-0.7c0-0.7,0.2-1,0.7-1c0.5,0,0.7,0.4,0.7,1V427z"/>
	<path class="st0" d="M311.2,403.9H284c-1.9,0-3.4,1.5-3.4,3.4v27.2c0,1.9,1.5,3.4,3.4,3.4h27.2c1.9,0,3.4-1.5,3.4-3.4v-27.2
		C314.6,405.5,313.1,403.9,311.2,403.9z M300.5,409.9L300.5,409.9h1.4v5.6c0,0.3,0,0.5,0,0.5c0,0.2,0.1,0.3,0.3,0.3
		c0.3,0,0.6-0.2,0.9-0.6v-5.8h1.4v7.6h-1.4v-0.8c-0.6,0.6-1.1,0.9-1.6,0.9c-0.4,0-0.7-0.2-0.9-0.6c-0.1-0.2-0.1-0.6-0.1-1.1V409.9z
		 M295.3,412.3c0-0.8,0.1-1.4,0.4-1.8c0.4-0.5,0.9-0.8,1.6-0.8c0.7,0,1.2,0.3,1.6,0.8c0.3,0.4,0.4,1,0.4,1.8v2.7
		c0,0.8-0.1,1.4-0.4,1.8c-0.4,0.5-0.9,0.8-1.6,0.8c-0.7,0-1.2-0.3-1.6-0.8c-0.3-0.4-0.4-1-0.4-1.8V412.3z M291.6,407.2L291.6,407.2
		l1.1,4l1.1-4h1.5l-1.9,6.1v4.1h-1.5v-4.1c-0.2-0.8-0.5-1.8-0.9-3.3c-0.1-0.3-0.3-0.8-0.5-1.4c-0.2-0.6-0.4-1.1-0.5-1.4H291.6z
		 M308.6,432.1c-0.1,0.6-0.4,1.1-0.9,1.5c-0.4,0.4-1,0.7-1.6,0.7c-1.9,0.2-4.7,0.3-8.5,0.3c-3.8,0-6.6-0.1-8.5-0.3
		c-0.6-0.1-1.1-0.3-1.6-0.7c-0.4-0.4-0.7-0.9-0.9-1.5c-0.3-1.2-0.4-2.9-0.4-5.4c0-2.4,0.1-4.2,0.4-5.4c0.1-0.6,0.4-1.1,0.9-1.5
		c0.4-0.4,1-0.6,1.6-0.7c1.9-0.2,4.7-0.3,8.5-0.3c3.8,0,6.6,0.1,8.5,0.3c0.6,0.1,1.1,0.3,1.6,0.7c0.5,0.4,0.7,0.9,0.9,1.5
		c0.3,1.1,0.4,2.9,0.4,5.4C309,429.2,308.8,431,308.6,432.1z"/>
</g>
</svg>
