<?xml version="1.0" encoding="utf-8"?>
<!-- Generator: Adobe Illustrator 21.1.0, SVG Export Plug-In . SVG Version: 6.00 Build 0)  -->
<svg version="1.1" id="Слой_1" xmlns="http://www.w3.org/2000/svg" xmlns:xlink="http://www.w3.org/1999/xlink" x="0px" y="0px"
	 viewBox="0 0 310 80" style="enable-background:new 0 0 310 80;" xml:space="preserve">
<style type="text/css">
	.st0{fill:#122347;}
	.st1{fill:#90191D;}
</style>
<g>
	<g>
		<g>
			<path class="st0" d="M299.2,14.8c-1-0.6-1.8-1.4-2.3-2.4c-0.6-1-0.9-2.1-0.9-3.3c0-1.2,0.3-2.3,0.9-3.3c0.6-1,1.4-1.8,2.4-2.4
				c1-0.6,2.1-0.9,3.3-0.9s2.3,0.3,3.3,0.8c1,0.6,1.8,1.3,2.3,2.3c0.6,1,0.8,2.1,0.8,3.3s-0.3,2.3-0.9,3.3c-0.6,1-1.4,1.8-2.4,2.4
				c-1,0.6-2.1,0.9-3.3,0.9C301.3,15.7,300.2,15.4,299.2,14.8z M305.3,14.1c0.9-0.5,1.5-1.2,2-2.1c0.5-0.9,0.7-1.8,0.7-2.9
				c0-1.1-0.2-2-0.7-2.9c-0.5-0.9-1.2-1.5-2-2c-0.9-0.5-1.8-0.7-2.9-0.7c-1.1,0-2,0.3-2.9,0.8c-0.9,0.5-1.5,1.2-2,2.1
				c-0.5,0.9-0.7,1.8-0.7,2.9c0,1,0.2,2,0.7,2.9c0.5,0.9,1.2,1.6,2,2.1c0.9,0.5,1.8,0.8,2.9,0.8C303.5,14.9,304.5,14.6,305.3,14.1z
				 M300.6,12.5c-0.6-0.3-1.1-0.8-1.4-1.3c-0.3-0.6-0.5-1.2-0.5-2c0-0.7,0.2-1.4,0.5-2c0.3-0.6,0.8-1,1.4-1.3c0.6-0.3,1.3-0.5,2-0.5
				c0.6,0,1.2,0.1,1.8,0.4c0.5,0.3,0.9,0.6,1.2,1.1l-1.1,0.8c-0.4-0.7-1.1-1-2-1c-0.7,0-1.3,0.2-1.8,0.7c-0.5,0.5-0.7,1.1-0.7,1.8
				c0,0.8,0.2,1.4,0.7,1.8c0.5,0.5,1.1,0.7,1.8,0.7c0.9,0,1.5-0.3,2-1l1.1,0.7c-0.3,0.5-0.7,0.8-1.2,1.1c-0.5,0.3-1.1,0.4-1.8,0.4
				C301.9,13,301.2,12.8,300.6,12.5z"/>
		</g>
		<circle class="st1" cx="121.9" cy="32.4" r="5.5"/>
		<path class="st0" d="M102.3,9.4c2.5,0.6,4.8,1.5,6.8,2.9c2.1,1.4,4.1,3.1,5.8,5c0.9,1,1.6,1.5,2.4,1.6c0.8,0.1,1.6-0.2,2.3-0.8
			l1.3-1c0.7-0.5,1.1-1.3,1.1-2.1c0-0.6-0.1-1.4-1-2.3c-0.9-1.1-1.8-2.1-2.8-3c-1-0.9-2.1-1.8-3.2-2.7c-3.4-2.4-7.1-4.1-11.3-5.1
			c-2.8-0.6-5.6-0.9-8.4-0.8c-2.8,0.1-5.5,0.6-8,1.4c-2.6,0.8-5,1.9-7.3,3.4C77.9,7.3,75.8,9,74,11c-1.8,1.9-3.4,4.2-4.7,6.6
			C68,20,67,22.6,66.4,25.4c-0.6,2.8-0.9,5.6-0.8,8.4c0.1,2.8,0.6,5.5,1.4,8c0.8,2.6,1.9,5,3.4,7.3c1.4,2.3,3.1,4.3,5.1,6.2
			c1.9,1.8,4.2,3.4,6.6,4.7c2.4,1.3,5.1,2.3,7.8,2.9c1,0.2,2,0.4,3.1,0.5v12.6c0,1.7,1.2,2.9,3,2.9h1.6c1.8,0,3-1.2,3-2.9V63.5
			c0.6-0.1,1.2-0.2,1.8-0.3c1-0.2,1.9-0.4,2.8-0.7l0,0l1.5-0.5c3-1,5.8-2.4,8.4-4.2c1.1-0.8,2.2-1.7,3.1-2.6c1-0.9,1.9-1.9,2.7-2.8
			c0.7-0.7,1-1.5,0.9-2.5c-0.1-0.9-0.4-1.5-0.9-2.1l-0.9-0.9c-1-1-2-1.2-2.6-1.1c-0.9,0.1-1.6,0.5-2.3,1.2c-0.8,1-1.7,2-2.8,2.9
			c-1.1,0.9-2.2,1.8-3.3,2.5c-0.7,0.4-1.4,0.8-2.1,1.2c-1.3,0.6-2.6,1.1-3.6,1.3c-0.8,0.2-1.8,0.4-2.8,0.6V9.1
			C101.2,9.2,101.7,9.3,102.3,9.4z M93,55.8c-0.6-0.1-1.1-0.2-1.6-0.3c-2-0.4-3.8-1.2-5.6-2.2c-1.8-1-3.4-2.2-4.8-3.7
			c-1.4-1.4-2.7-3-3.8-4.8c-1.1-1.8-2-3.6-2.6-5.6c-0.6-1.9-1-4-1.2-6.1c-0.1-2.1,0-4.1,0.5-6.1c0.5-2,1.2-3.9,2.1-5.7
			c1-1.8,2.2-3.4,3.6-4.9c1.4-1.5,2.9-2.8,4.7-3.9c1.7-1.1,3.6-2,5.5-2.6c1-0.3,2.1-0.6,3.2-0.8V55.8z"/>
		<path class="st0" d="M9.5,26.2c0.6-2,1.4-3.8,2.4-5.6c1-1.7,2.3-3.4,3.7-4.8c1.4-1.5,3-2.7,4.8-3.8c1.8-1.1,3.7-1.9,5.7-2.5
			c2-0.6,4.2-0.9,6.4-0.9c2.5,0,5,0.4,7.3,1.3c2.4,0.9,4.6,2.1,6.7,3.6c1.1,0.8,1.9,1.1,2.7,1c0.5-0.1,1.4-0.3,2.1-1.3l1-1.3
			c0.6-0.7,0.8-1.5,0.6-2.3c-0.1-0.6-0.4-1.4-1.4-2c-1.1-0.9-2.2-1.6-3.4-2.3c-1.2-0.7-2.4-1.3-3.7-1.9C40.7,1.9,36.6,1,32.4,1
			c-2.9,0-5.7,0.4-8.4,1.1c-2.7,0.7-5.2,1.8-7.5,3.2c-2.3,1.3-4.5,3-6.4,4.9c-1.9,1.9-3.5,4-4.9,6.3c-1.4,2.3-2.4,4.8-3.2,7.5
			C1.4,26.6,1,29.4,1,32.2c0,2.9,0.4,5.7,1.1,8.4c0.7,2.7,1.8,5.2,3.2,7.5c1.3,2.3,3,4.5,4.9,6.4c1.9,1.9,4,3.5,6.3,4.9
			c2.3,1.4,4.8,2.4,7.5,3.2c2.7,0.7,5.4,1.1,8.3,1.1c4.3,0,8.4-0.8,12.3-2.4c1.2-0.5,2.5-1.2,3.6-1.8c1.2-0.7,2.2-1.4,3.2-2.1
			c0.9-0.6,1.4-1.4,1.5-2.4c0.1-0.8-0.1-1.5-0.5-2.2l-0.6-0.9c-0.6-1-1.4-1.5-2.3-1.7c-0.9-0.1-1.7,0.1-2.5,0.7
			c-1,0.8-2.1,1.6-3.3,2.3c-1.2,0.7-2.5,1.2-3.8,1.7c-1.3,0.5-2.6,0.8-3.9,1.1c-1.3,0.2-2.6,0.4-3.8,0.4c-2,0-4-0.3-5.9-0.9
			c-1.9-0.6-3.8-1.4-5.5-2.5c-1.7-1.1-3.3-2.4-4.8-3.8c-1.5-1.5-2.7-3.1-3.8-4.9c-1.1-1.8-1.9-3.7-2.5-5.7c-0.6-2-0.9-4-0.9-6.1
			C8.7,30.2,8.9,28.2,9.5,26.2L9.5,26.2z"/>
		<path class="st0" d="M296.6,58.7l-22.6-54c-0.1-0.1-0.1-0.4-0.3-0.6c-0.1-0.3-0.3-0.6-0.5-0.9c-0.3-0.4-0.6-0.7-0.9-0.9
			c-0.5-0.4-1.1-0.5-1.7-0.5h-1.4c-0.9,0-1.8,0.4-2.4,1.2c-0.4,0.5-0.7,1-0.9,1.6l-22.6,54.3c-0.2,0.5-0.3,0.9-0.3,1.4
			c0,1.3,0.9,2.6,2.8,2.6h1c1.1,0,3-0.4,3.9-3l4.6-11.2h29l4.8,11.5c0.3,0.7,0.7,1.3,1.3,1.7c0.7,0.6,1.5,0.9,2.5,0.9h1
			c0.7,0,1.4-0.2,1.9-0.6c0.6-0.5,1-1.2,1-2.1C296.9,59.5,296.8,59.2,296.6,58.7z M258.6,40.8l11.3-27.1l11.3,27.1H258.6z"/>
		<path class="st0" d="M182.1,55h-34.3V36.9h26.8c1,0,1.8-0.4,2.5-1.1c0.6-0.6,0.9-1.4,0.9-2.3v-1c0-1-0.4-1.9-1-2.5
			c-0.6-0.6-1.4-0.8-2.3-0.8h-26.8V9.3h33.4c1,0,1.8-0.4,2.5-1.1c0.6-0.6,0.9-1.4,0.9-2.3V5c0-1-0.4-1.9-1.1-2.5
			c-0.6-0.5-1.4-0.8-2.2-0.8h-37.8c-1,0-1.9,0.4-2.5,1c-0.7,0.8-0.8,1.8-0.8,3.5v55.3h1.1l0.1,0.1l0,0l-0.2,0.4l0.1,0
			c0.3,0.2,1.1,0.6,2.3,0.6h38.6c1,0,1.8-0.4,2.5-1.1c0.6-0.6,0.8-1.4,0.8-2.3v-0.9c0-1-0.4-1.9-1.1-2.5C183.7,55.3,183,55,182.1,55
			z"/>
		<path class="st0" d="M237.7,12.9c-1-2.2-2.4-4.1-4.2-5.8c-1.7-1.6-3.8-3-6.2-3.9c-2.4-1-5-1.5-7.7-1.5h-19.2l-0.4,0.2
			c-1.3,0.3-2.1,1.4-2.1,2.8v54.8c0,1.7,1.2,2.9,3,2.9h1.6c1.8,0,3-1.2,3-2.9V38.2h14.2c2.7,0,5.2-0.5,7.6-1.4
			c2.4-0.9,4.4-2.3,6.2-3.9c1.8-1.6,3.1-3.6,4.1-5.8c1-2.2,1.5-4.6,1.5-7.1C239.3,17.5,238.7,15.1,237.7,12.9z M230.7,24.1
			c-0.6,1.3-1.5,2.5-2.5,3.5c-1.1,1-2.3,1.8-3.8,2.4c-1.4,0.6-3,0.9-4.7,0.9h-14V9h14c1.7,0,3.3,0.3,4.7,0.9
			c1.4,0.6,2.7,1.4,3.8,2.4c1.1,1,1.9,2.2,2.5,3.5c0.6,1.3,0.9,2.7,0.9,4.2C231.6,21.4,231.3,22.8,230.7,24.1z"/>
	</g>
</g>
</svg>
