<?xml version="1.0" encoding="utf-8"?>
<!-- Generator: Adobe Illustrator 21.1.0, SVG Export Plug-In . SVG Version: 6.00 Build 0)  -->
<svg version="1.1" id="Capa_1" xmlns="http://www.w3.org/2000/svg" xmlns:xlink="http://www.w3.org/1999/xlink" x="0px" y="0px"
	 viewBox="277.6 400.9 40 40" style="enable-background:new 277.6 400.9 40 40;" xml:space="preserve">
<style type="text/css">
	.st0{fill:#183369;}
</style>
<g>
	<path class="st0" d="M304,403.9h-12.8c-5.9,0-10.6,4.8-10.6,10.6v12.8c0,5.9,4.8,10.6,10.6,10.6H304c5.9,0,10.6-4.8,10.6-10.6
		v-12.8C314.6,408.7,309.9,403.9,304,403.9z M311.5,427.3c0,4.1-3.3,7.4-7.4,7.4h-12.8c-4.1,0-7.4-3.3-7.4-7.4v-12.8
		c0-4.1,3.3-7.4,7.4-7.4H304c4.1,0,7.4,3.3,7.4,7.4V427.3z"/>
	<path class="st0" d="M297.6,412.4c-4.7,0-8.5,3.8-8.5,8.5c0,4.7,3.8,8.5,8.5,8.5c4.7,0,8.5-3.8,8.5-8.5
		C306.1,416.3,302.3,412.4,297.6,412.4z M297.6,426.3c-2.9,0-5.3-2.4-5.3-5.3c0-2.9,2.4-5.3,5.3-5.3s5.3,2.4,5.3,5.3
		C303,423.9,300.6,426.3,297.6,426.3z"/>
	<circle class="st0" cx="306.8" cy="411.8" r="1.1"/>
</g>
</svg>
