<?xml version="1.0" encoding="utf-8"?>
<!-- Generator: Adobe Illustrator 21.1.0, SVG Export Plug-In . SVG Version: 6.00 Build 0)  -->
<svg version="1.1" id="Capa_1" xmlns="http://www.w3.org/2000/svg" xmlns:xlink="http://www.w3.org/1999/xlink" x="0px" y="0px"
	 viewBox="207.3 207.3 24 24" style="enable-background:new 207.3 207.3 24 24;" xml:space="preserve">
<style type="text/css">
	.st0{fill:#000;}
</style>
<path class="st0" d="M228.8,227c-0.3,0.6-0.9,1.1-1.8,1.5c-0.9,0.4-1.8,0.7-2.5,0.7c-0.2,0-0.4,0-0.7,0c-0.2,0-0.4-0.1-0.6-0.1
	c-0.2,0-0.4-0.1-0.6-0.2c-0.3-0.1-0.5-0.1-0.6-0.2c-0.1,0-0.3-0.1-0.6-0.2c-0.3-0.1-0.5-0.2-0.6-0.2c-2.1-0.8-4.2-2.2-6.2-4.2
	c-2-2-3.4-4.1-4.2-6.2c0-0.1-0.1-0.3-0.2-0.6c-0.1-0.3-0.2-0.5-0.2-0.6c0-0.1-0.1-0.3-0.2-0.6c-0.1-0.3-0.1-0.5-0.2-0.6
	c0-0.2-0.1-0.4-0.1-0.6c0-0.2,0-0.5,0-0.7c0-0.7,0.2-1.6,0.7-2.5c0.4-0.9,1-1.6,1.5-1.8c0.7-0.3,1.3-0.4,2-0.4c0.1,0,0.2,0,0.3,0
	c0.1,0,0.2,0.1,0.3,0.3s0.3,0.5,0.5,0.8c0.2,0.3,0.3,0.6,0.5,0.9c0.2,0.3,0.3,0.6,0.5,0.9c0.2,0.3,0.3,0.5,0.3,0.6
	c0,0.1,0.1,0.2,0.3,0.4c0.1,0.2,0.2,0.3,0.3,0.5c0.1,0.1,0.1,0.3,0.1,0.4c0,0.2-0.1,0.4-0.4,0.7c-0.3,0.3-0.6,0.5-0.9,0.8
	c-0.3,0.2-0.6,0.5-0.9,0.7c-0.3,0.3-0.4,0.5-0.4,0.6c0,0.1,0,0.2,0.1,0.3c0,0.1,0.1,0.2,0.1,0.3c0,0.1,0.1,0.2,0.2,0.3
	c0.1,0.1,0.1,0.2,0.2,0.3c0.7,1.3,1.5,2.4,2.4,3.3c0.9,0.9,2,1.7,3.3,2.5c0,0,0.1,0.1,0.3,0.2c0.1,0.1,0.3,0.1,0.3,0.2
	c0.1,0,0.2,0.1,0.3,0.1c0.1,0,0.2,0.1,0.3,0.1c0.2,0,0.5-0.2,0.9-0.6c0.4-0.4,0.7-0.8,1.1-1.3c0.4-0.4,0.7-0.6,0.9-0.6
	c0.1,0,0.3,0,0.4,0.1c0.1,0.1,0.3,0.2,0.5,0.3c0.2,0.1,0.3,0.2,0.4,0.3l1,0.6c0.7,0.4,1.3,0.7,1.7,1c0.5,0.3,0.7,0.5,0.7,0.6
	c0,0.1,0,0.2,0,0.3C229.2,225.6,229,226.3,228.8,227z"/>
</svg>
