<?xml version="1.0" encoding="utf-8"?>
<!-- Generator: Adobe Illustrator 21.1.0, SVG Export Plug-In . SVG Version: 6.00 Build 0)  -->
<svg version="1.1" id="Capa_1" xmlns="http://www.w3.org/2000/svg" xmlns:xlink="http://www.w3.org/1999/xlink" x="0px" y="0px"
	 viewBox="277.6 400.9 40 40" style="enable-background:new 277.6 400.9 40 40;" xml:space="preserve">
<style type="text/css">
	.st0{fill:#183369;}
</style>
<g>
	<path class="st0" d="M312.8,403.9h-30.2c-1,0-1.9,0.8-1.9,1.9v30.2c0,1,0.8,1.9,1.9,1.9h16.3v-13.2h-4.4v-5.1h4.4v-3.8
		c0-4.4,2.7-6.8,6.6-6.8c1.9,0,3.5,0.1,4,0.2v4.6l-2.7,0c-2.1,0-2.5,1-2.5,2.5v3.3h5.1l-0.7,5.1h-4.4v13.2h8.7c1,0,1.9-0.8,1.9-1.9
		v-30.2C314.6,404.8,313.8,403.9,312.8,403.9z"/>
</g>
</svg>
